<?xml version="1.0" encoding="UTF-8"?>
<svg xmlns="http://www.w3.org/2000/svg" xmlns:xlink="http://www.w3.org/1999/xlink" viewBox="0 0 75 75" width="75px" height="75px">
<g id="surface178164381">
<path style=" stroke:none;fill-rule:nonzero;fill:rgb(100%,100%,100%);fill-opacity:1;" d="M 37.5 12 C 23.417969 12 12 23.417969 12 37.5 C 12 51.582031 23.417969 63 37.5 63 C 51.582031 63 63 51.582031 63 37.5 C 63 23.417969 51.582031 12 37.5 12 Z M 37.5 13.5 C 50.753906 13.5 61.5 24.246094 61.5 37.5 C 61.5 48.472656 54.128906 57.707031 44.070312 60.570312 C 43.867188 60.257812 43.71875 59.898438 43.726562 59.476562 C 43.769531 57.890625 43.726562 54.195312 43.726562 52.835938 C 43.726562 50.507812 42.253906 48.855469 42.253906 48.855469 C 42.253906 48.855469 53.816406 48.988281 53.816406 36.648438 C 53.816406 31.886719 51.332031 29.410156 51.332031 29.410156 C 51.332031 29.410156 52.640625 24.324219 50.878906 22.167969 C 48.90625 21.957031 45.375 24.054688 43.867188 25.035156 C 43.867188 25.035156 41.480469 24.054688 37.503906 24.054688 C 33.527344 24.054688 31.136719 25.035156 31.136719 25.035156 C 29.628906 24.054688 26.09375 21.957031 24.121094 22.167969 C 22.363281 24.324219 23.667969 29.410156 23.667969 29.410156 C 23.667969 29.410156 21.179688 31.882812 21.179688 36.644531 C 21.179688 48.984375 32.746094 48.851562 32.746094 48.851562 C 32.746094 48.851562 31.582031 50.164062 31.324219 52.097656 C 30.527344 52.378906 29.421875 52.71875 28.371094 52.71875 C 25.863281 52.71875 23.953125 50.28125 23.253906 49.152344 C 22.566406 48.039062 21.152344 47.105469 19.832031 47.105469 C 18.964844 47.105469 18.539062 47.539062 18.539062 48.035156 C 18.539062 48.53125 19.757812 48.875 20.558594 49.796875 C 22.253906 51.734375 22.226562 56.101562 28.257812 56.101562 C 28.972656 56.101562 30.25 55.9375 31.269531 55.800781 C 31.265625 57.214844 31.25 58.597656 31.269531 59.472656 C 31.28125 59.894531 31.132812 60.257812 30.929688 60.570312 C 20.871094 57.707031 13.5 48.472656 13.5 37.5 C 13.5 24.246094 24.246094 13.5 37.5 13.5 Z M 37.5 13.5 "/>
</g>
</svg>
